# xmcd CD database file
#
# Track frame offsets:
#	150
#	16340
#	33159
#	50240
#	68699
#	91248
#	107448
#	120814
#	134951
#	158487
#	173753
#	189042
#	205688
#	223064
#	241466
#	257978
#
# Disc length: 3655 seconds
#
# Revision: 1
# Processed by: cddbd v1.5.1PL0 Copyright (c) Steve Scherf et al.
# Submitted via: CDex 1.50beta10
#
DISCID=d30e4510
DTITLE=Shania Twain - Guitar Plays Shania Twain and Friends
DYEAR=2001
DGENRE=Country
TTITLE0=You're Still The One ...
TTITLE1=I Need You ...
TTITLE2=From This Moment On ...
TTITLE3=Breathe ...
TTITLE4=The Woman In Me Needs The Man In You ...
TTITLE5=Can't Fight The Moonlight ...
TTITLE6=Come On Over ...
TTITLE7=The Way You Love Me
TTITLE8=How Do I Live ...
TTITLE9=But I Do Love You ...
TTITLE10=Thinkin' About You ...
TTITLE11=That Don't Impress Me Much ...
TTITLE12=Real Live Woman ...
TTITLE13=Looking Through Your Eyes ...
TTITLE14=There You'll Be ...
TTITLE15=Don't Be Stupid (You Know I Love You) ...
EXTD=YEAR: 2001
EXTT0=
EXTT1=
EXTT2=
EXTT3=
EXTT4=
EXTT5=
EXTT6=
EXTT7=
EXTT8=
EXTT9=
EXTT10=
EXTT11=
EXTT12=
EXTT13=
EXTT14=
EXTT15=
PLAYORDER=
